<?xml version="1.0" encoding="UTF-8" standalone="no"?>
<!DOCTYPE svg PUBLIC "-//W3C//DTD SVG 1.1//EN"
 "http://www.w3.org/Graphics/SVG/1.1/DTD/svg11.dtd">
<!-- Generated by graphviz version 2.44.1 (20200629.0846)
 -->
<!-- Pages: 1 -->
<svg width="843pt" height="548pt"
 viewBox="0.00 0.00 843.48 548.00" xmlns="http://www.w3.org/2000/svg" xmlns:xlink="http://www.w3.org/1999/xlink">
<g id="graph0" class="graph" transform="scale(1 1) rotate(0) translate(4 544)">
<polygon fill="white" stroke="transparent" points="-4,4 -4,-544 839.48,-544 839.48,4 -4,4"/>
<!-- [root] aws_eip.expT&#45;server1&#45;public&#45;ip (expand) -->
<g id="node1" class="node">
<title>[root] aws_eip.expT&#45;server1&#45;public&#45;ip (expand)</title>
<polygon fill="none" stroke="black" points="389.5,-396 200.5,-396 200.5,-360 389.5,-360 389.5,-396"/>
<text text-anchor="middle" x="295" y="-374.3" font-family="Times,serif" font-size="14.00">aws_eip.expT&#45;server1&#45;public&#45;ip</text>
</g>
<!-- [root] aws_instance.expT&#45;server1 (expand) -->
<g id="node2" class="node">
<title>[root] aws_instance.expT&#45;server1 (expand)</title>
<polygon fill="none" stroke="black" points="334,-324 170,-324 170,-288 334,-288 334,-324"/>
<text text-anchor="middle" x="252" y="-302.3" font-family="Times,serif" font-size="14.00">aws_instance.expT&#45;server1</text>
</g>
<!-- [root] aws_eip.expT&#45;server1&#45;public&#45;ip (expand)&#45;&gt;[root] aws_instance.expT&#45;server1 (expand) -->
<g id="edge1" class="edge">
<title>[root] aws_eip.expT&#45;server1&#45;public&#45;ip (expand)&#45;&gt;[root] aws_instance.expT&#45;server1 (expand)</title>
<path fill="none" stroke="black" d="M284.37,-359.7C279.37,-351.56 273.31,-341.69 267.79,-332.7"/>
<polygon fill="black" stroke="black" points="270.72,-330.79 262.51,-324.1 264.76,-334.46 270.72,-330.79"/>
</g>
<!-- [root] aws_internet_gateway.expT&#45;internet&#45;gw (expand) -->
<g id="node3" class="node">
<title>[root] aws_internet_gateway.expT&#45;internet&#45;gw (expand)</title>
<polygon fill="none" stroke="black" points="662,-252 428,-252 428,-216 662,-216 662,-252"/>
<text text-anchor="middle" x="545" y="-230.3" font-family="Times,serif" font-size="14.00">aws_internet_gateway.expT&#45;internet&#45;gw</text>
</g>
<!-- [root] aws_eip.expT&#45;server1&#45;public&#45;ip (expand)&#45;&gt;[root] aws_internet_gateway.expT&#45;internet&#45;gw (expand) -->
<g id="edge2" class="edge">
<title>[root] aws_eip.expT&#45;server1&#45;public&#45;ip (expand)&#45;&gt;[root] aws_internet_gateway.expT&#45;internet&#45;gw (expand)</title>
<path fill="none" stroke="black" d="M316.17,-359.74C340.3,-340.6 381.4,-309.58 420,-288 441.68,-275.87 466.7,-264.75 488.63,-255.86"/>
<polygon fill="black" stroke="black" points="490.16,-259.02 498.15,-252.06 487.56,-252.52 490.16,-259.02"/>
</g>
<!-- [root] aws_network_interface.expT&#45;server1&#45;nic (expand) -->
<g id="node4" class="node">
<title>[root] aws_network_interface.expT&#45;server1&#45;nic (expand)</title>
<polygon fill="none" stroke="black" points="371.5,-252 132.5,-252 132.5,-216 371.5,-216 371.5,-252"/>
<text text-anchor="middle" x="252" y="-230.3" font-family="Times,serif" font-size="14.00">aws_network_interface.expT&#45;server1&#45;nic</text>
</g>
<!-- [root] aws_instance.expT&#45;server1 (expand)&#45;&gt;[root] aws_network_interface.expT&#45;server1&#45;nic (expand) -->
<g id="edge3" class="edge">
<title>[root] aws_instance.expT&#45;server1 (expand)&#45;&gt;[root] aws_network_interface.expT&#45;server1&#45;nic (expand)</title>
<path fill="none" stroke="black" d="M252,-287.7C252,-279.98 252,-270.71 252,-262.11"/>
<polygon fill="black" stroke="black" points="255.5,-262.1 252,-252.1 248.5,-262.1 255.5,-262.1"/>
</g>
<!-- [root] aws_vpc.expT&#45;production&#45;vpc (expand) -->
<g id="node9" class="node">
<title>[root] aws_vpc.expT&#45;production&#45;vpc (expand)</title>
<polygon fill="none" stroke="black" points="494,-108 312,-108 312,-72 494,-72 494,-108"/>
<text text-anchor="middle" x="403" y="-86.3" font-family="Times,serif" font-size="14.00">aws_vpc.expT&#45;production&#45;vpc</text>
</g>
<!-- [root] aws_internet_gateway.expT&#45;internet&#45;gw (expand)&#45;&gt;[root] aws_vpc.expT&#45;production&#45;vpc (expand) -->
<g id="edge4" class="edge">
<title>[root] aws_internet_gateway.expT&#45;internet&#45;gw (expand)&#45;&gt;[root] aws_vpc.expT&#45;production&#45;vpc (expand)</title>
<path fill="none" stroke="black" d="M544.17,-215.93C542.36,-196.39 536.69,-164.45 519,-144 507.08,-130.22 490.85,-119.83 474.3,-112.07"/>
<polygon fill="black" stroke="black" points="475.66,-108.84 465.1,-108.02 472.84,-115.25 475.66,-108.84"/>
</g>
<!-- [root] aws_security_group.allow_ssh_and_web_traffic (expand) -->
<g id="node7" class="node">
<title>[root] aws_security_group.allow_ssh_and_web_traffic (expand)</title>
<polygon fill="none" stroke="black" points="278,-180 0,-180 0,-144 278,-144 278,-180"/>
<text text-anchor="middle" x="139" y="-158.3" font-family="Times,serif" font-size="14.00">aws_security_group.allow_ssh_and_web_traffic</text>
</g>
<!-- [root] aws_network_interface.expT&#45;server1&#45;nic (expand)&#45;&gt;[root] aws_security_group.allow_ssh_and_web_traffic (expand) -->
<g id="edge5" class="edge">
<title>[root] aws_network_interface.expT&#45;server1&#45;nic (expand)&#45;&gt;[root] aws_security_group.allow_ssh_and_web_traffic (expand)</title>
<path fill="none" stroke="black" d="M224.36,-215.88C209.58,-206.72 191.21,-195.34 175.3,-185.48"/>
<polygon fill="black" stroke="black" points="177.09,-182.48 166.75,-180.19 173.41,-188.43 177.09,-182.48"/>
</g>
<!-- [root] aws_subnet.expT&#45;production&#45;subnet (expand) -->
<g id="node8" class="node">
<title>[root] aws_subnet.expT&#45;production&#45;subnet (expand)</title>
<polygon fill="none" stroke="black" points="509.5,-180 296.5,-180 296.5,-144 509.5,-144 509.5,-180"/>
<text text-anchor="middle" x="403" y="-158.3" font-family="Times,serif" font-size="14.00">aws_subnet.expT&#45;production&#45;subnet</text>
</g>
<!-- [root] aws_network_interface.expT&#45;server1&#45;nic (expand)&#45;&gt;[root] aws_subnet.expT&#45;production&#45;subnet (expand) -->
<g id="edge6" class="edge">
<title>[root] aws_network_interface.expT&#45;server1&#45;nic (expand)&#45;&gt;[root] aws_subnet.expT&#45;production&#45;subnet (expand)</title>
<path fill="none" stroke="black" d="M288.94,-215.88C309.49,-206.35 335.25,-194.41 357.09,-184.28"/>
<polygon fill="black" stroke="black" points="358.58,-187.45 366.18,-180.07 355.64,-181.1 358.58,-187.45"/>
</g>
<!-- [root] aws_route_table.expT&#45;prod&#45;route&#45;table (expand) -->
<g id="node5" class="node">
<title>[root] aws_route_table.expT&#45;prod&#45;route&#45;table (expand)</title>
<polygon fill="none" stroke="black" points="657,-324 429,-324 429,-288 657,-288 657,-324"/>
<text text-anchor="middle" x="543" y="-302.3" font-family="Times,serif" font-size="14.00">aws_route_table.expT&#45;prod&#45;route&#45;table</text>
</g>
<!-- [root] aws_route_table.expT&#45;prod&#45;route&#45;table (expand)&#45;&gt;[root] aws_internet_gateway.expT&#45;internet&#45;gw (expand) -->
<g id="edge7" class="edge">
<title>[root] aws_route_table.expT&#45;prod&#45;route&#45;table (expand)&#45;&gt;[root] aws_internet_gateway.expT&#45;internet&#45;gw (expand)</title>
<path fill="none" stroke="black" d="M543.49,-287.7C543.71,-279.98 543.98,-270.71 544.23,-262.11"/>
<polygon fill="black" stroke="black" points="547.72,-262.2 544.51,-252.1 540.73,-262 547.72,-262.2"/>
</g>
<!-- [root] aws_route_table_association.a (expand) -->
<g id="node6" class="node">
<title>[root] aws_route_table_association.a (expand)</title>
<polygon fill="none" stroke="black" points="612,-396 430,-396 430,-360 612,-360 612,-396"/>
<text text-anchor="middle" x="521" y="-374.3" font-family="Times,serif" font-size="14.00">aws_route_table_association.a</text>
</g>
<!-- [root] aws_route_table_association.a (expand)&#45;&gt;[root] aws_route_table.expT&#45;prod&#45;route&#45;table (expand) -->
<g id="edge8" class="edge">
<title>[root] aws_route_table_association.a (expand)&#45;&gt;[root] aws_route_table.expT&#45;prod&#45;route&#45;table (expand)</title>
<path fill="none" stroke="black" d="M526.44,-359.7C528.89,-351.9 531.84,-342.51 534.57,-333.83"/>
<polygon fill="black" stroke="black" points="537.96,-334.69 537.62,-324.1 531.29,-332.59 537.96,-334.69"/>
</g>
<!-- [root] aws_route_table_association.a (expand)&#45;&gt;[root] aws_subnet.expT&#45;production&#45;subnet (expand) -->
<g id="edge9" class="edge">
<title>[root] aws_route_table_association.a (expand)&#45;&gt;[root] aws_subnet.expT&#45;production&#45;subnet (expand)</title>
<path fill="none" stroke="black" d="M466.06,-359.95C448.61,-351.82 431.01,-340.22 420,-324 392.79,-283.92 394.51,-224.83 398.54,-190.5"/>
<polygon fill="black" stroke="black" points="402.05,-190.65 399.9,-180.28 395.12,-189.73 402.05,-190.65"/>
</g>
<!-- [root] aws_security_group.allow_ssh_and_web_traffic (expand)&#45;&gt;[root] aws_vpc.expT&#45;production&#45;vpc (expand) -->
<g id="edge10" class="edge">
<title>[root] aws_security_group.allow_ssh_and_web_traffic (expand)&#45;&gt;[root] aws_vpc.expT&#45;production&#45;vpc (expand)</title>
<path fill="none" stroke="black" d="M203.24,-143.97C241.09,-133.93 289.14,-121.19 328.62,-110.72"/>
<polygon fill="black" stroke="black" points="329.7,-114.06 338.47,-108.11 327.9,-107.29 329.7,-114.06"/>
</g>
<!-- [root] aws_subnet.expT&#45;production&#45;subnet (expand)&#45;&gt;[root] aws_vpc.expT&#45;production&#45;vpc (expand) -->
<g id="edge11" class="edge">
<title>[root] aws_subnet.expT&#45;production&#45;subnet (expand)&#45;&gt;[root] aws_vpc.expT&#45;production&#45;vpc (expand)</title>
<path fill="none" stroke="black" d="M403,-143.7C403,-135.98 403,-126.71 403,-118.11"/>
<polygon fill="black" stroke="black" points="406.5,-118.1 403,-108.1 399.5,-118.1 406.5,-118.1"/>
</g>
<!-- [root] provider[&quot;registry.terraform.io/hashicorp/aws&quot;] -->
<g id="node10" class="node">
<title>[root] provider[&quot;registry.terraform.io/hashicorp/aws&quot;]</title>
<polygon fill="none" stroke="black" points="403,-36 150.46,-18 403,0 655.54,-18 403,-36"/>
<text text-anchor="middle" x="403" y="-14.3" font-family="Times,serif" font-size="14.00">provider[&quot;registry.terraform.io/hashicorp/aws&quot;]</text>
</g>
<!-- [root] aws_vpc.expT&#45;production&#45;vpc (expand)&#45;&gt;[root] provider[&quot;registry.terraform.io/hashicorp/aws&quot;] -->
<g id="edge12" class="edge">
<title>[root] aws_vpc.expT&#45;production&#45;vpc (expand)&#45;&gt;[root] provider[&quot;registry.terraform.io/hashicorp/aws&quot;]</title>
<path fill="none" stroke="black" d="M403,-71.7C403,-63.98 403,-54.71 403,-46.11"/>
<polygon fill="black" stroke="black" points="406.5,-46.1 403,-36.1 399.5,-46.1 406.5,-46.1"/>
</g>
<!-- [root] meta.count&#45;boundary (EachMode fixup) -->
<g id="node11" class="node">
<title>[root] meta.count&#45;boundary (EachMode fixup)</title>
<ellipse fill="none" stroke="black" cx="186" cy="-450" rx="176.27" ry="18"/>
<text text-anchor="middle" x="186" y="-446.3" font-family="Times,serif" font-size="14.00">[root] meta.count&#45;boundary (EachMode fixup)</text>
</g>
<!-- [root] meta.count&#45;boundary (EachMode fixup)&#45;&gt;[root] aws_eip.expT&#45;server1&#45;public&#45;ip (expand) -->
<g id="edge13" class="edge">
<title>[root] meta.count&#45;boundary (EachMode fixup)&#45;&gt;[root] aws_eip.expT&#45;server1&#45;public&#45;ip (expand)</title>
<path fill="none" stroke="black" d="M212.39,-432.05C226.61,-422.92 244.34,-411.53 259.73,-401.65"/>
<polygon fill="black" stroke="black" points="261.96,-404.38 268.48,-396.03 258.17,-398.49 261.96,-404.38"/>
</g>
<!-- [root] meta.count&#45;boundary (EachMode fixup)&#45;&gt;[root] aws_route_table_association.a (expand) -->
<g id="edge14" class="edge">
<title>[root] meta.count&#45;boundary (EachMode fixup)&#45;&gt;[root] aws_route_table_association.a (expand)</title>
<path fill="none" stroke="black" d="M259.52,-433.64C309.56,-423.18 376.15,-409.27 429.61,-398.1"/>
<polygon fill="black" stroke="black" points="430.36,-401.52 439.43,-396.04 428.93,-394.66 430.36,-401.52"/>
</g>
<!-- [root] provider[&quot;registry.terraform.io/hashicorp/aws&quot;] (close) -->
<g id="node12" class="node">
<title>[root] provider[&quot;registry.terraform.io/hashicorp/aws&quot;] (close)</title>
<ellipse fill="none" stroke="black" cx="608" cy="-450" rx="227.46" ry="18"/>
<text text-anchor="middle" x="608" y="-446.3" font-family="Times,serif" font-size="14.00">[root] provider[&quot;registry.terraform.io/hashicorp/aws&quot;] (close)</text>
</g>
<!-- [root] provider[&quot;registry.terraform.io/hashicorp/aws&quot;] (close)&#45;&gt;[root] aws_eip.expT&#45;server1&#45;public&#45;ip (expand) -->
<g id="edge15" class="edge">
<title>[root] provider[&quot;registry.terraform.io/hashicorp/aws&quot;] (close)&#45;&gt;[root] aws_eip.expT&#45;server1&#45;public&#45;ip (expand)</title>
<path fill="none" stroke="black" d="M535.8,-432.85C489.69,-422.54 429.66,-409.12 381.08,-398.25"/>
<polygon fill="black" stroke="black" points="381.73,-394.81 371.2,-396.04 380.2,-401.64 381.73,-394.81"/>
</g>
<!-- [root] provider[&quot;registry.terraform.io/hashicorp/aws&quot;] (close)&#45;&gt;[root] aws_route_table_association.a (expand) -->
<g id="edge16" class="edge">
<title>[root] provider[&quot;registry.terraform.io/hashicorp/aws&quot;] (close)&#45;&gt;[root] aws_route_table_association.a (expand)</title>
<path fill="none" stroke="black" d="M586.94,-432.05C575.91,-423.18 562.22,-412.17 550.19,-402.48"/>
<polygon fill="black" stroke="black" points="552.15,-399.57 542.17,-396.03 547.76,-405.03 552.15,-399.57"/>
</g>
<!-- [root] root -->
<g id="node13" class="node">
<title>[root] root</title>
<ellipse fill="none" stroke="black" cx="397" cy="-522" rx="47.39" ry="18"/>
<text text-anchor="middle" x="397" y="-518.3" font-family="Times,serif" font-size="14.00">[root] root</text>
</g>
<!-- [root] root&#45;&gt;[root] meta.count&#45;boundary (EachMode fixup) -->
<g id="edge17" class="edge">
<title>[root] root&#45;&gt;[root] meta.count&#45;boundary (EachMode fixup)</title>
<path fill="none" stroke="black" d="M362.16,-509.44C330.35,-498.89 282.69,-483.08 244.96,-470.56"/>
<polygon fill="black" stroke="black" points="245.7,-467.12 235.1,-467.29 243.49,-473.76 245.7,-467.12"/>
</g>
<!-- [root] root&#45;&gt;[root] provider[&quot;registry.terraform.io/hashicorp/aws&quot;] (close) -->
<g id="edge18" class="edge">
<title>[root] root&#45;&gt;[root] provider[&quot;registry.terraform.io/hashicorp/aws&quot;] (close)</title>
<path fill="none" stroke="black" d="M431.84,-509.44C463.32,-499 510.34,-483.4 547.89,-470.94"/>
<polygon fill="black" stroke="black" points="549.32,-474.16 557.71,-467.68 547.11,-467.51 549.32,-474.16"/>
</g>
</g>
</svg>
